<?xml version="1.0" encoding="UTF-8"?>
<svg version="1.1" xmlns="http://www.w3.org/2000/svg" width="256" height="256">
<path d="M0 0 C64.02 0 128.04 0 194 0 C194 12.37556883 194 12.37556883 193.55789185 17.75354004 C193.41077255 19.58245537 193.41077255 19.58245537 193.26068115 21.44831848 C193.15161438 22.74734604 193.04254761 24.0463736 192.93017578 25.38476562 C192.81482665 26.79706361 192.69985758 28.20939269 192.5852356 29.62174988 C192.27529707 33.42579195 191.95969633 37.22934365 191.64271402 41.03280449 C191.37756232 44.22084029 191.11525912 47.4091079 190.85294521 50.59737825 C190.23365881 58.12401489 189.60979349 65.6502621 188.98291016 73.17626953 C188.33844763 80.91416246 187.70120587 88.6526256 187.067608 96.39141512 C186.52122716 103.06214752 185.9706029 109.73252032 185.41657245 116.40262175 C185.08665961 120.3748207 184.75824129 124.34712759 184.43381119 128.31977844 C184.12843659 132.05654793 183.81771098 135.79283625 183.50303268 139.52883339 C183.33522438 141.5361526 183.17269178 143.54391071 183.01037598 145.55168152 C180.95150802 169.7548248 180.95150802 169.7548248 173.22265625 176.56640625 C168.59049942 180.00379959 165.19155188 181.12272597 159.52998352 181.14717102 C158.39309586 181.15432632 157.25620819 181.16148163 156.08486938 181.16885376 C154.21235001 181.17288712 154.21235001 181.17288712 152.30200195 181.17700195 C150.98792862 181.18357315 149.67385529 181.19014435 148.31996155 181.19691467 C143.95941384 181.21794174 139.59886584 181.22831718 135.23828125 181.23828125 C133.73556182 181.2423296 132.23284258 181.24644654 130.73012352 181.25063133 C123.66828351 181.26968164 116.60645392 181.28391186 109.54459316 181.2922433 C101.40173748 181.30200939 93.2591541 181.32831291 85.11639434 181.36874419 C78.81732021 181.39894388 72.51832395 181.4137159 66.21917886 181.41702431 C62.45959302 181.41937082 58.70029813 181.42827847 54.94079018 181.45348549 C51.40057806 181.47683844 47.86084693 181.48097089 44.32057762 181.47072411 C42.41126754 181.46999599 40.50198149 181.48903735 38.59277344 181.50878906 C30.05060016 181.45725477 24.43158594 180.43158594 18.1875 174.1875 C14.05910547 168.17183941 12.5493288 162.89797619 11.99902344 155.67993164 C11.89171276 154.46240487 11.89171276 154.46240487 11.78223419 153.2202816 C11.54658952 150.51358045 11.32797675 147.80578301 11.109375 145.09765625 C10.94353657 143.15079758 10.77665957 141.20402714 10.60882568 139.25733948 C10.24902808 135.05682384 9.89688908 130.8557592 9.55053711 126.65411377 C8.99250513 119.88662573 8.41596007 113.12078171 7.83789062 106.35498047 C6.82570351 94.47642845 5.83553808 82.59612741 4.85302734 70.71508789 C4.34408159 64.5627617 3.82920569 58.41094566 3.31311417 52.25921535 C2.9102878 47.44579515 2.51152322 42.63204467 2.11388397 37.81819344 C1.92559263 35.54684213 1.73583441 33.27561187 1.54450226 31.00451469 C1.27960636 27.85548041 1.02046814 24.70602078 0.76269531 21.55639648 C0.68482285 20.64584 0.60695038 19.73528351 0.52671814 18.7971344 C0.01713552 12.46856651 0 6.39955296 0 0 Z M46.625 17.3125 C44.79945027 20.3316784 44.80868669 21.49414096 44.86125183 24.94656372 C44.87621893 25.93233524 44.89118603 26.91810677 44.90660667 27.93375015 C45.05510495 32.8091822 45.3019389 37.67375093 45.5949707 42.54248047 C45.65842682 43.63820877 45.72188293 44.73393707 45.78726196 45.86286926 C45.99621102 49.44788358 46.21039647 53.03255438 46.42578125 56.6171875 C46.49926474 57.84753849 46.57274822 59.07788948 46.64845848 60.34552383 C47.03694908 66.84192437 47.42976441 73.33804744 47.82592773 79.83398438 C48.19409264 85.87460646 48.54940991 91.91589925 48.89933902 97.95760238 C49.23804811 103.7915768 49.59145644 109.62459084 49.95009422 115.45737076 C50.10009969 117.93145117 50.2455758 120.40581051 50.38643837 122.88042831 C50.58400468 126.33248147 50.79835072 129.78310388 51.0168457 133.23388672 C51.07151505 134.2552623 51.12618439 135.27663788 51.18251038 136.32896423 C51.54597271 141.76030997 51.96112596 145.96112596 56 150 C60.6308399 150.51406149 60.6308399 150.51406149 64.70544529 148.72590351 C66.99135923 145.67831745 66.35575212 141.89800079 66.26733398 138.2409668 C66.2558882 137.35492862 66.24444242 136.46889044 66.2326498 135.55600262 C66.04930065 125.06965889 65.39717809 114.60847109 64.72265625 104.14453125 C64.5900517 102.01994254 64.45793583 99.89532329 64.32627869 97.77067566 C64.05178125 93.36111139 63.7732881 88.95182601 63.49145508 84.54272461 C63.13149709 78.91038051 62.77895967 73.27760334 62.42903996 67.64462757 C62.15728236 63.27522272 61.88306688 58.90597513 61.60796928 54.5367794 C61.47718652 52.45930311 61.34682474 50.38180027 61.21690559 48.30426979 C61.03497799 45.40557775 60.85008982 42.50708975 60.66430664 39.60864258 C60.61179749 38.76539932 60.55928833 37.92215607 60.50518799 37.05335999 C60.24758962 33.08135775 59.95242827 29.11274041 59.58348083 25.14945984 C59.51986579 24.44725657 59.45625074 23.74505331 59.39070797 23.02157116 C58.94495657 20.7151985 58.21250813 19.00852503 57 17 C53.35181078 15.17590539 50.16780221 15.35463562 46.625 17.3125 Z M90 20 C89.40373475 22.48741184 89.40373475 22.48741184 89.49206543 25.23754883 C89.48078613 26.29745026 89.46950684 27.35735168 89.45788574 28.44937134 C89.46598267 29.60689911 89.47407959 30.76442688 89.48242188 31.95703125 C89.4754126 33.18014008 89.46840332 34.4032489 89.46118164 35.66342163 C89.44659217 39.0149338 89.45001189 42.3654583 89.46269798 45.71691513 C89.47282959 49.22510856 89.46343187 52.73325998 89.45715332 56.24145508 C89.44987734 62.13272677 89.45946315 68.02379784 89.47851562 73.91503906 C89.50028451 80.72483682 89.49323309 87.53415554 89.47121 94.34394169 C89.45305442 100.19206116 89.45049837 106.04003646 89.46096468 111.88817501 C89.46719884 115.38041472 89.46803766 118.87242932 89.45481873 122.36465454 C89.44111206 126.25761517 89.46011264 130.15003981 89.48242188 134.04296875 C89.47432495 135.20049652 89.46622803 136.35802429 89.45788574 137.55062866 C89.46916504 138.61053009 89.48044434 139.67043152 89.49206543 140.76245117 C89.49357353 141.68273605 89.49508163 142.60302094 89.49663544 143.55119324 C90.16020522 146.77937872 91.44520378 147.9806948 94 150 C97 150.66666667 97 150.66666667 100 150 C102.55479622 147.9806948 103.83979478 146.77937872 104.50336456 143.55119324 C104.50487267 142.63090836 104.50638077 141.71062347 104.50793457 140.76245117 C104.51921387 139.70254974 104.53049316 138.64264832 104.54211426 137.55062866 C104.53401733 136.39310089 104.52592041 135.23557312 104.51757812 134.04296875 C104.5245874 132.81985992 104.53159668 131.5967511 104.53881836 130.33657837 C104.55340783 126.9850662 104.54998811 123.6345417 104.53730202 120.28308487 C104.52717041 116.77489144 104.53656813 113.26674002 104.54284668 109.75854492 C104.55012266 103.86727323 104.54053685 97.97620216 104.52148438 92.08496094 C104.49971549 85.27516318 104.50676691 78.46584446 104.52879 71.65605831 C104.54694558 65.80793884 104.54950163 59.95996354 104.53903532 54.11182499 C104.53280116 50.61958528 104.53196234 47.12757068 104.54518127 43.63534546 C104.55888794 39.74238483 104.53988736 35.84996019 104.51757812 31.95703125 C104.52567505 30.79950348 104.53377197 29.64197571 104.54211426 28.44937134 C104.53083496 27.38946991 104.51955566 26.32956848 104.50793457 25.23754883 C104.50642647 24.31726395 104.50491837 23.39697906 104.50336456 22.44880676 C103.83979478 19.22062128 102.55479622 18.0193052 100 16 C95.02794617 15.17132436 93.10246828 16.13740908 90 20 Z M137.1875 17.375 C135.22786635 20.05660395 134.81694815 21.9644147 134.55712891 25.22924805 C134.48368256 26.13906937 134.41023621 27.04889069 134.33456421 27.98628235 C134.25767365 29.00530136 134.18078308 30.02432037 134.1015625 31.07421875 C133.97498764 32.70794685 133.97498764 32.70794685 133.84585571 34.37467957 C132.6603257 50.03807216 131.68566533 65.71652092 130.71289062 81.39428711 C130.43178754 85.91970983 130.1428496 90.44459703 129.8521328 94.9694109 C129.62482525 98.52907024 129.40320962 102.08906878 129.18303299 105.64917564 C129.07904513 107.31580131 128.973082 108.98230528 128.86484909 110.64866066 C128.27541703 119.7569523 127.86993619 128.85964808 127.74853516 137.98706055 C127.72724737 138.8432665 127.70595959 139.69947245 127.68402672 140.58162403 C127.67974474 141.37728621 127.67546276 142.1729484 127.67105103 142.99272156 C127.6618545 143.69528926 127.65265797 144.39785696 127.64318275 145.12171459 C128.11743754 147.61819102 128.98437018 148.4890615 131 150 C135.70823089 150.56503726 135.70823089 150.56503726 139.875 148.6875 C141.86159789 145.70760317 142.16985262 142.90334156 142.38600159 139.42333984 C142.44627533 138.4843132 142.50654907 137.54528656 142.56864929 136.57780457 C142.66143913 135.03495537 142.66143913 135.03495537 142.75610352 133.4609375 C142.82452454 132.37601517 142.89294556 131.29109283 142.96343994 130.17329407 C143.18931309 126.57410256 143.4092599 122.97457648 143.62890625 119.375 C143.78416225 116.87213577 143.93967833 114.36928766 144.09544373 111.86645508 C144.42161535 106.61083453 144.7449978 101.35504966 145.06616211 96.09912109 C145.4360469 90.04655791 145.81120031 83.99433908 146.18923432 77.94227982 C146.55385596 72.10284609 146.9145912 66.26317821 147.27366447 60.42340088 C147.42619974 57.94836504 147.57969721 55.4733883 147.7341938 52.99847412 C147.95054561 49.52391671 148.16248176 46.04911629 148.37329102 42.57421875 C148.43717514 41.56184647 148.50105927 40.54947418 148.56687927 39.50642395 C149.99599077 27.99500463 149.99599077 27.99500463 147.375 17.3125 C143.78463047 15.32834842 140.58700686 14.79606376 137.1875 17.375 Z " fill="#000000" transform="translate(31,75)"/>
<path d="M0 0 C1.62467816 -0.00337482 3.24935384 -0.00823297 4.87402344 -0.01449585 C8.26652239 -0.02183593 11.65835969 -0.01125541 15.05078125 0.01220703 C19.37836382 0.04069403 23.70439558 0.02427446 28.03192139 -0.00565529 C31.38309205 -0.02380666 34.73390087 -0.01793468 38.08508301 -0.00501633 C39.6797301 -0.00170389 41.2744111 -0.00569251 42.86901855 -0.01741409 C51.54130089 -0.06718713 59.18518197 -0.09552105 66.25 5.6640625 C68.40625 7.98046875 68.40625 7.98046875 69.75 10.2265625 C70.2140625 10.97035156 70.678125 11.71414063 71.15625 12.48046875 C73.23972675 16.63998125 73.36279631 20.28680182 73.3125 24.9140625 C73.30347656 25.99171875 73.29445312 27.069375 73.28515625 28.1796875 C73.26775391 29.40945312 73.26775391 29.40945312 73.25 30.6640625 C73.86308014 30.65518005 74.47616028 30.64629761 75.1078186 30.637146 C81.49935567 30.54852568 87.89071767 30.48826719 94.28271484 30.44433594 C96.66690157 30.42424357 99.05103915 30.39696469 101.43505859 30.36230469 C104.86568338 30.31368391 108.29565555 30.29106938 111.7265625 30.2734375 C112.78928375 30.25279236 113.852005 30.23214722 114.94692993 30.21087646 C121.05580304 30.20903191 124.60305102 30.57747811 129.25 34.6640625 C132.79581036 38.69895015 133.55360179 42.23067659 133.46484375 47.60546875 C132.98807026 52.17382567 131.02437114 54.96523976 127.6875 57.9765625 C123.46515798 60.89972236 120.23553122 60.81239944 115.22930908 60.81123352 C113.97127822 60.81674855 113.97127822 60.81674855 112.68783259 60.822375 C109.86121824 60.83343906 107.03464061 60.83726028 104.20800781 60.84106445 C102.18791588 60.84732704 100.1678251 60.85397366 98.1477356 60.86097717 C92.64763059 60.87840581 87.14753428 60.88894399 81.64740849 60.8971827 C78.21306519 60.90232886 74.77872462 60.90840476 71.34438324 60.91469383 C60.60479175 60.93375101 49.86520716 60.94798109 39.12560201 60.9563058 C26.71805031 60.96608148 14.31067686 60.99240752 1.90318799 61.03280669 C-7.67988322 61.0629414 -17.26290326 61.07777216 -26.84602094 61.08108681 C-32.57289099 61.0834403 -38.29957074 61.09243963 -44.02639008 61.11754799 C-49.41410085 61.14078739 -54.80149546 61.14507851 -60.18924332 61.13478661 C-62.16695582 61.13429013 -64.14468367 61.14064333 -66.12234879 61.15434265 C-68.82240468 61.17199971 -71.52131836 61.16498603 -74.22137451 61.15180969 C-75.00406857 61.16277894 -75.78676263 61.17374818 -76.5931747 61.18504983 C-81.79860397 61.12371838 -84.72904012 59.93417064 -88.75 56.6640625 C-92.29581036 52.62917485 -93.05360179 49.09744841 -92.96484375 43.72265625 C-92.48807026 39.15429933 -90.52437114 36.36288524 -87.1875 33.3515625 C-83.75667716 30.97637746 -82.06013376 30.54016769 -77.93310547 30.55053711 C-76.93221893 30.55061264 -75.9313324 30.55068817 -74.90011597 30.55076599 C-73.81674957 30.55592728 -72.73338318 30.56108856 -71.6171875 30.56640625 C-70.51021515 30.5678212 -69.4032428 30.56923615 -68.26272583 30.57069397 C-64.71679007 30.57630478 -61.17091677 30.58885913 -57.625 30.6015625 C-55.22526133 30.60657611 -52.82552167 30.61113925 -50.42578125 30.61523438 C-44.53383275 30.62627772 -38.64192084 30.6430264 -32.75 30.6640625 C-32.77175293 29.4419104 -32.77175293 29.4419104 -32.79394531 28.19506836 C-32.80522461 27.12135986 -32.81650391 26.04765137 -32.828125 24.94140625 C-32.84987793 23.34800415 -32.84987793 23.34800415 -32.87207031 21.72241211 C-32.62120992 15.43735573 -30.28638162 10.08106566 -25.75 5.6640625 C-17.99814071 -0.57003745 -9.42002203 -0.06924435 0 0 Z M-14.75 17.6640625 C-17.67450033 21.44988778 -17.67450033 21.44988778 -16.75 30.6640625 C7.67 30.6640625 32.09 30.6640625 57.25 30.6640625 C58.2124412 21.50163525 58.2124412 21.50163525 55.4375 18.1015625 C51.74727718 15.67655893 48.79158686 15.5345353 44.48095703 15.51879883 C42.70363693 15.50922905 42.70363693 15.50922905 40.89041138 15.49946594 C39.60915375 15.49835312 38.32789612 15.4972403 37.0078125 15.49609375 C35.69215302 15.49276535 34.37649353 15.48943695 33.02096558 15.48600769 C30.23516012 15.48002093 27.44938566 15.4781673 24.66357422 15.47875977 C21.10040254 15.4788613 17.53743051 15.46521587 13.97430611 15.44798756 C10.56880526 15.43416869 7.16334102 15.43477811 3.7578125 15.43359375 C2.48060333 15.42640823 1.20339417 15.41922272 -0.11251831 15.41181946 C-1.3037027 15.41489609 -2.49488708 15.41797272 -3.72216797 15.42114258 C-4.76790985 15.41971756 -5.81365173 15.41829254 -6.89108276 15.41682434 C-9.92890924 15.67953451 -12.05005053 16.2562194 -14.75 17.6640625 Z " fill="#000000" transform="translate(107.75,-0.6640625)"/>
</svg>
